<svg width="26" height="27" viewBox="0 0 26 27" fill="none" xmlns="http://www.w3.org/2000/svg">
<path d="M24.8119 17.1999C24.5976 16.9275 24.3084 16.7149 23.9791 16.589C23.4029 16.3686 22.7775 16.4145 22.2517 16.7076L18.7801 18.6432C18.7604 18.926 18.7048 19.2116 18.6077 19.4947C18.011 21.2332 16.0842 22.1964 14.2523 21.7224L10.8206 20.8344C10.3984 20.7252 10.1478 20.3061 10.2609 19.8983C10.374 19.4905 10.808 19.2486 11.2303 19.3578L14.7143 20.2593C15.7699 20.5325 16.855 19.9276 17.1378 18.9082C17.4206 17.8888 16.7942 16.841 15.7386 16.5678L10.4194 15.1914C9.39832 14.9272 8.33186 15.0628 7.41642 15.5732L0.783576 19.2714C0.40503 19.4824 0.275278 19.9499 0.493889 20.3155L3.78788 25.8252C3.89284 26.0008 4.0657 26.1289 4.26848 26.1813C4.47126 26.2338 4.68729 26.2064 4.86907 26.105L7.86034 24.4372L14.2589 24.8358C15.0412 24.8844 15.8135 24.7101 16.4923 24.3316L24.2304 20.0173C25.2486 19.4496 25.5468 18.134 24.8119 17.1999Z" fill="#969696"/>
<path d="M7.52685 12.3473H18.0801C18.5172 12.3473 18.8716 12.0051 18.8716 11.583C18.8716 9.55426 17.7984 7.76319 16.1715 6.71094C15.295 7.51911 14.1082 8.01604 12.8035 8.01604C11.4988 8.01604 10.312 7.51911 9.43546 6.71094C7.80862 7.76319 6.73535 9.55426 6.73535 11.583C6.73535 12.0051 7.08973 12.3473 7.52685 12.3473Z" fill="#969696"/>
<path d="M12.8038 6.48724C14.6251 6.48724 16.1017 5.06136 16.1017 3.30246C16.1017 1.54355 14.6251 0.117676 12.8038 0.117676C10.9824 0.117676 9.50586 1.54355 9.50586 3.30246C9.50586 5.06136 10.9824 6.48724 12.8038 6.48724Z" fill="#969696"/>
</svg>
