<svg width="29" height="28" viewBox="0 0 29 28" fill="none" xmlns="http://www.w3.org/2000/svg">
<path d="M28.6513 10.3332C28.5537 10.0329 28.2943 9.81413 27.982 9.7688L19.2075 8.49374L15.2834 0.542774C15.1437 0.259734 14.8554 0.0805664 14.5398 0.0805664C14.2242 0.0805664 13.9359 0.259734 13.7963 0.542774L9.87193 8.49374L1.09767 9.7688C0.785383 9.81413 0.525836 10.0329 0.42832 10.3331C0.330748 10.6333 0.412122 10.9629 0.638168 11.1832L6.98713 17.3722L5.48856 26.1112C5.43516 26.4223 5.56308 26.7367 5.81842 26.9222C5.96287 27.0272 6.13397 27.0806 6.3059 27.0806C6.43791 27.0806 6.57036 27.0491 6.69165 26.9853L14.5398 22.8592L22.3876 26.9853C22.667 27.1321 23.0055 27.1077 23.2609 26.9222C23.5162 26.7367 23.6442 26.4222 23.5908 26.1111L22.0918 17.3722L28.4415 11.1831C28.6675 10.9629 28.7489 10.6333 28.6513 10.3332Z" fill="#969696"/>
</svg>
